<svg height="2062" width="720" xmlns="http://www.w3.org/2000/svg">
<rect height="2062" fill="#555" width="720"></rect>
<text fill="#7f7" font-family="Courier New" font-size="12" xml:space="preserve">
<tspan x="10" y="26"></tspan>
<tspan x="10" y="42">&gt; npmdoc-enzyme@0.0.1 test /home/travis/build/npmdoc/node-npmdoc-enzyme</tspan>
<tspan x="10" y="58">&gt; (set -e; export PORT=$(utility2 shServerPortRandom); utility2 test test.js)</tspan>
<tspan x="10" y="74"></tspan>
<tspan x="10" y="90"></tspan>
<tspan x="10" y="106">[MODE_BUILD=npmTest] - 2017-04-04T08:48:38Z - npm-testing /home/travis/build/npmdoc/node-npmdoc-\</tspan>
<tspan x="10" y="122">enzyme</tspan>
<tspan x="10" y="138"></tspan>
<tspan x="10" y="154"></tspan>
<tspan x="10" y="170">covering $ /home/travis/.nvm/versions/node/v6.10.1/bin/node /home/travis/build/npmdoc/node-npmdo\</tspan>
<tspan x="10" y="186">c-enzyme/test.js</tspan>
<tspan x="10" y="202">merging file:///home/travis/build/npmdoc/node-npmdoc-enzyme/tmp/build/test-report.json to test-r\</tspan>
<tspan x="10" y="218">eport</tspan>
<tspan x="10" y="234">&gt; server listening on http-port 38205</tspan>
<tspan x="10" y="250">[enzyme/withDom] Error: missing required module "jsdom"</tspan>
<tspan x="10" y="266">[enzyme/withDom] To fix this you must run:</tspan>
<tspan x="10" y="282">[enzyme/withDom]   npm install jsdom --save-dev</tspan>
<tspan x="10" y="298">created apidoc file:///home/travis/build/npmdoc/node-npmdoc-enzyme/tmp/build/apidoc.html</tspan>
<tspan x="10" y="314"></tspan>
<tspan x="10" y="330"></tspan>
<tspan x="10" y="346">browserTest - created electron entry-page /home/travis/build/npmdoc/node-npmdoc-enzyme/tmp/elect\</tspan>
<tspan x="10" y="362">ron.15b3826d0580.92908d2573bdf.html</tspan>
<tspan x="10" y="378"></tspan>
<tspan x="10" y="394">[node test-case 1 of 6 passed] - testCase_buildLib_default</tspan>
<tspan x="10" y="410">[node test-case 2 of 6 passed] - testCase_buildReadme_default</tspan>
<tspan x="10" y="426">[node test-case 3 of 6 passed] - testCase_buildTest_default</tspan>
<tspan x="10" y="442"></tspan>
<tspan x="10" y="458">browserTest - created electron entry-page /home/travis/build/npmdoc/node-npmdoc-enzyme/tmp/elect\</tspan>
<tspan x="10" y="474">ron.15b3826d0830.26dcdff77a982.html</tspan>
<tspan x="10" y="490"></tspan>
<tspan x="10" y="506">Xlib:  extension "RANDR" missing on display ":99.0".</tspan>
<tspan x="10" y="522">Xlib:  extension "RANDR" missing on display ":99.0".</tspan>
<tspan x="10" y="538">merging file:///home/travis/build/npmdoc/node-npmdoc-enzyme/tmp/build/test-report.json to test-r\</tspan>
<tspan x="10" y="554">eport</tspan>
<tspan x="10" y="570">Xlib:  extension "RANDR" missing on display ":99.0".</tspan>
<tspan x="10" y="586">merging file:///home/travis/build/npmdoc/node-npmdoc-enzyme/tmp/build/test-report.json to test-r\</tspan>
<tspan x="10" y="602">eport</tspan>
<tspan x="10" y="618">[4786:0404/084840:WARNING:audio_manager.cc(314)] Multiple instances of AudioManager detected</tspan>
<tspan x="10" y="634">[4786:0404/084840:WARNING:audio_manager.cc(275)] Multiple instances of AudioManager detected</tspan>
<tspan x="10" y="650">Xlib:  extension "RANDR" missing on display ":99.0".</tspan>
<tspan x="10" y="666">[4817:0404/084840:ERROR:sandbox_linux.cc(343)] InitializeSandbox() called with multiple threads \</tspan>
<tspan x="10" y="682">in process gpu-process. </tspan>
<tspan x="10" y="698">&gt; server listening on http-port 58502</tspan>
<tspan x="10" y="714">[4785:0404/084840:WARNING:audio_manager.cc(314)] Multiple instances of AudioManager detected</tspan>
<tspan x="10" y="730">[4785:0404/084840:WARNING:audio_manager.cc(275)] Multiple instances of AudioManager detected</tspan>
<tspan x="10" y="746">[4786:0404/084840:ERROR:browser_gpu_channel_host_factory.cc(131)] Failed to create channel.</tspan>
<tspan x="10" y="762">[4847:0404/084840:ERROR:sandbox_linux.cc(343)] InitializeSandbox() called with multiple threads \</tspan>
<tspan x="10" y="778">in process gpu-process. </tspan>
<tspan x="10" y="794">[4785:0404/084840:ERROR:browser_gpu_channel_host_factory.cc(131)] Failed to create channel.</tspan>
<tspan x="10" y="810"></tspan>
<tspan x="10" y="826">browserTest - opened url http://127.0.0.1:38205?modeTest=1</tspan>
<tspan x="10" y="842"></tspan>
<tspan x="10" y="858"></tspan>
<tspan x="10" y="874">browserTest - opened url /home/travis/build/npmdoc/node-npmdoc-enzyme/tmp/build/apidoc.html</tspan>
<tspan x="10" y="890"></tspan>
<tspan x="10" y="906">[4786:0404/084842:INFO:CONSOLE(245)] "----------|-----------|-----------|-----------|-----------\</tspan>
<tspan x="10" y="922">|</tspan>
<tspan x="10" y="938">File      |   % Stmts |% Branches |   % Funcs |   % Lines |</tspan>
<tspan x="10" y="954">----------|-----------|-----------|-----------|-----------|</tspan>
<tspan x="10" y="970">----------|-----------|-----------|-----------|-----------|</tspan>
<tspan x="10" y="986">All files |       100 |       100 |       100 |       100 |</tspan>
<tspan x="10" y="1002">----------|-----------|-----------|-----------|-----------|</tspan>
<tspan x="10" y="1018">", source: file:///home/travis/build/npmdoc/node-npmdoc-enzyme/tmp/electron.15b3826d0830.26dcdff\</tspan>
<tspan x="10" y="1034">77a982.html (245)</tspan>
<tspan x="10" y="1050">[4786:0404/084842:INFO:CONSOLE(245)] "created coverage file:///tmp/build/coverage.html/index.htm\</tspan>
<tspan x="10" y="1066">l", source: file:///home/travis/build/npmdoc/node-npmdoc-enzyme/tmp/electron.15b3826d0830.26dcdf\</tspan>
<tspan x="10" y="1082">f77a982.html (245)</tspan>
<tspan x="10" y="1098">[node test-case 4 of 6 passed] - testCase_buildApp_default</tspan>
<tspan x="10" y="1114"></tspan>
<tspan x="10" y="1130">browserTest - created screenCapture file:///home/travis/build/npmdoc/node-npmdoc-enzyme/tmp/buil\</tspan>
<tspan x="10" y="1146">d/screenCapture.npmTest.browser..png</tspan>
<tspan x="10" y="1162"></tspan>
<tspan x="10" y="1178">browserTest - created screenCapture file:///home/travis/build/npmdoc/node-npmdoc-enzyme/tmp/buil\</tspan>
<tspan x="10" y="1194">d/screenCapture.npmTest.browser..html</tspan>
<tspan x="10" y="1210"></tspan>
<tspan x="10" y="1226">browserTest - created screenCapture file:///home/travis/build/npmdoc/node-npmdoc-enzyme/tmp/buil\</tspan>
<tspan x="10" y="1242">d/screenCapture.npmTest.browser._2Fhome_2Ftravis_2Fbuild_2Fnpmdoc_2Fnode-npmdoc-enzyme_2Ftmp_2Fb\</tspan>
<tspan x="10" y="1258">uild_2Fapidoc.html.png</tspan>
<tspan x="10" y="1274"></tspan>
<tspan x="10" y="1290"></tspan>
<tspan x="10" y="1306">browserTest - exit-code 0 - http://127.0.0.1:38205?modeTest=1</tspan>
<tspan x="10" y="1322"></tspan>
<tspan x="10" y="1338">browserTest - created screenCapture file:///home/travis/build/npmdoc/node-npmdoc-enzyme/tmp/buil\</tspan>
<tspan x="10" y="1354">d/screenCapture.npmTest.browser._2Fhome_2Ftravis_2Fbuild_2Fnpmdoc_2Fnode-npmdoc-enzyme_2Ftmp_2Fb\</tspan>
<tspan x="10" y="1370">uild_2Fapidoc.html.html</tspan>
<tspan x="10" y="1386"></tspan>
<tspan x="10" y="1402">browserTest - merged coverage from /home/travis/build/npmdoc/node-npmdoc-enzyme/tmp/coverage.npm\</tspan>
<tspan x="10" y="1418">Test.browser.%2F.json</tspan>
<tspan x="10" y="1434"></tspan>
<tspan x="10" y="1450"></tspan>
<tspan x="10" y="1466">browserTest - merging test-report from /home/travis/build/npmdoc/node-npmdoc-enzyme/tmp/test-rep\</tspan>
<tspan x="10" y="1482">ort.npmTest.browser.%2F.json</tspan>
<tspan x="10" y="1498"></tspan>
<tspan x="10" y="1514">[node test-case 5 of 6 passed] - testCase_webpage_default</tspan>
<tspan x="10" y="1530"></tspan>
<tspan x="10" y="1546">browserTest - exit-code 0 - /home/travis/build/npmdoc/node-npmdoc-enzyme/tmp/build/apidoc.html</tspan>
<tspan x="10" y="1562"></tspan>
<tspan x="10" y="1578">[node test-case 6 of 6 passed] - testCase_buildApidoc_default</tspan>
<tspan x="10" y="1594">---------------------------|-----------|-----------|-----------|-----------|</tspan>
<tspan x="10" y="1610">File                       |   % Stmts |% Branches |   % Funcs |   % Lines |</tspan>
<tspan x="10" y="1626">---------------------------|-----------|-----------|-----------|-----------|</tspan>
<tspan x="10" y="1642">   node-npmdoc-enzyme/     |       100 |       100 |       100 |       100 |</tspan>
<tspan x="10" y="1658">      example.js           |       100 |       100 |       100 |       100 |</tspan>
<tspan x="10" y="1674">      lib.npmdoc_enzyme.js |       100 |       100 |       100 |       100 |</tspan>
<tspan x="10" y="1690">      test.js              |       100 |       100 |       100 |       100 |</tspan>
<tspan x="10" y="1706">---------------------------|-----------|-----------|-----------|-----------|</tspan>
<tspan x="10" y="1722">All files                  |       100 |       100 |       100 |       100 |</tspan>
<tspan x="10" y="1738">---------------------------|-----------|-----------|-----------|-----------|</tspan>
<tspan x="10" y="1754"></tspan>
<tspan x="10" y="1770">created coverage file:///home/travis/build/npmdoc/node-npmdoc-enzyme/tmp/build/coverage.html/ind\</tspan>
<tspan x="10" y="1786">ex.html</tspan>
<tspan x="10" y="1802">merging file:///home/travis/build/npmdoc/node-npmdoc-enzyme/tmp/build/test-report.json to test-r\</tspan>
<tspan x="10" y="1818">eport</tspan>
<tspan x="10" y="1834"></tspan>
<tspan x="10" y="1850">-------------------------------------------------------</tspan>
<tspan x="10" y="1866">| test-report - buildNpmdoc - node - linux v6.10.1 - 2017-04-04T08:48:23.240Z</tspan>
<tspan x="10" y="1882">|   26086 ms            0 failed        6 passed      |</tspan>
<tspan x="10" y="1898">-------------------------------------------------------</tspan>
<tspan x="10" y="1914"></tspan>
<tspan x="10" y="1930">created test-report file:///home/travis/build/npmdoc/node-npmdoc-enzyme/tmp/build/test-report.ht\</tspan>
<tspan x="10" y="1946">ml</tspan>
<tspan x="10" y="1962"></tspan>
<tspan x="10" y="1978"></tspan>
<tspan x="10" y="1994">npmTest - 0 failed tests</tspan>
<tspan x="10" y="2010"></tspan>
<tspan x="10" y="2026"></tspan>
<tspan x="10" y="2042">[MODE_BUILD=npmTest] - 2017-04-04T08:48:52Z - EXIT_CODE - 0</tspan>
</text>
</svg>
