<svg height="878" width="720" xmlns="http://www.w3.org/2000/svg">
<rect height="878" fill="#555" width="720"></rect>
<text fill="#7f7" font-family="Courier New" font-size="12" xml:space="preserve">
<tspan x="10" y="26">├─┬ enzyme@2.8.0 </tspan>
<tspan x="10" y="42">│ ├─┬ cheerio@0.22.0 </tspan>
<tspan x="10" y="58">│ │ ├─┬ css-select@1.2.0 </tspan>
<tspan x="10" y="74">│ │ │ ├── boolbase@1.0.0 </tspan>
<tspan x="10" y="90">│ │ │ ├── css-what@2.1.0 </tspan>
<tspan x="10" y="106">│ │ │ ├── domutils@1.5.1 </tspan>
<tspan x="10" y="122">│ │ │ └── nth-check@1.0.1 </tspan>
<tspan x="10" y="138">│ │ ├─┬ dom-serializer@0.1.0 </tspan>
<tspan x="10" y="154">│ │ │ └── domelementtype@1.1.3 </tspan>
<tspan x="10" y="170">│ │ ├── entities@1.1.1 </tspan>
<tspan x="10" y="186">│ │ ├─┬ htmlparser2@3.9.2 </tspan>
<tspan x="10" y="202">│ │ │ ├── domelementtype@1.3.0 </tspan>
<tspan x="10" y="218">│ │ │ ├── domhandler@2.3.0 </tspan>
<tspan x="10" y="234">│ │ │ ├── inherits@2.0.3 </tspan>
<tspan x="10" y="250">│ │ │ └─┬ readable-stream@2.2.6 </tspan>
<tspan x="10" y="266">│ │ │   ├── buffer-shims@1.0.0 </tspan>
<tspan x="10" y="282">│ │ │   ├── core-util-is@1.0.2 </tspan>
<tspan x="10" y="298">│ │ │   ├── isarray@1.0.0 </tspan>
<tspan x="10" y="314">│ │ │   ├── process-nextick-args@1.0.7 </tspan>
<tspan x="10" y="330">│ │ │   ├── string_decoder@0.10.31 </tspan>
<tspan x="10" y="346">│ │ │   └── util-deprecate@1.0.2 </tspan>
<tspan x="10" y="362">│ │ ├── lodash.assignin@4.2.0 </tspan>
<tspan x="10" y="378">│ │ ├── lodash.bind@4.2.1 </tspan>
<tspan x="10" y="394">│ │ ├── lodash.defaults@4.2.0 </tspan>
<tspan x="10" y="410">│ │ ├── lodash.filter@4.6.0 </tspan>
<tspan x="10" y="426">│ │ ├── lodash.flatten@4.4.0 </tspan>
<tspan x="10" y="442">│ │ ├── lodash.foreach@4.5.0 </tspan>
<tspan x="10" y="458">│ │ ├── lodash.map@4.6.0 </tspan>
<tspan x="10" y="474">│ │ ├── lodash.merge@4.6.0 </tspan>
<tspan x="10" y="490">│ │ ├── lodash.pick@4.4.0 </tspan>
<tspan x="10" y="506">│ │ ├── lodash.reduce@4.6.0 </tspan>
<tspan x="10" y="522">│ │ ├── lodash.reject@4.6.0 </tspan>
<tspan x="10" y="538">│ │ └── lodash.some@4.6.0 </tspan>
<tspan x="10" y="554">│ ├─┬ function.prototype.name@1.0.0 </tspan>
<tspan x="10" y="570">│ │ ├─┬ define-properties@1.1.2 </tspan>
<tspan x="10" y="586">│ │ │ └── foreach@2.0.5 </tspan>
<tspan x="10" y="602">│ │ ├── function-bind@1.1.0 </tspan>
<tspan x="10" y="618">│ │ └── is-callable@1.1.3 </tspan>
<tspan x="10" y="634">│ ├── is-subset@0.1.1 </tspan>
<tspan x="10" y="650">│ ├── lodash@4.17.4 </tspan>
<tspan x="10" y="666">│ ├── object-is@1.0.1 </tspan>
<tspan x="10" y="682">│ ├─┬ object.assign@4.0.4 </tspan>
<tspan x="10" y="698">│ │ └── object-keys@1.0.11 </tspan>
<tspan x="10" y="714">│ ├─┬ object.entries@1.0.4 </tspan>
<tspan x="10" y="730">│ │ ├─┬ es-abstract@1.7.0 </tspan>
<tspan x="10" y="746">│ │ │ ├─┬ es-to-primitive@1.1.1 </tspan>
<tspan x="10" y="762">│ │ │ │ ├── is-date-object@1.0.1 </tspan>
<tspan x="10" y="778">│ │ │ │ └── is-symbol@1.0.1 </tspan>
<tspan x="10" y="794">│ │ │ └── is-regex@1.0.4 </tspan>
<tspan x="10" y="810">│ │ └── has@1.0.1 </tspan>
<tspan x="10" y="826">│ ├── object.values@1.0.4 </tspan>
<tspan x="10" y="842">│ └── uuid@2.0.3 </tspan>
<tspan x="10" y="858">└── UNMET PEER DEPENDENCY react@0.13.x || 0.14.x || ^15.0.0-0 || 15.x</tspan>
</text>
</svg>
